<svg id="cross_3" data-name="Layer 1" xmlns="http://www.w3.org/2000/svg" width="136.42" height="139.59" viewBox="0 0 136.42 139.59">
  <defs>
    <style>
    #cross_3:hover { cursor: pointer; }
    #cross_3:hover .cls-2 { transform: rotate(3600deg); }

    .cls-1 {
        stroke: #231f20;
        stroke-miterlimit: 10;
    }

    .cls-2 {
        transform-origin: center;
        transition: all ease 1s;
    }

    </style>
  </defs>
  <polygon class="cls-2" points="52.8 43.36 48.84 39.41 37.5 50.75 26.16 39.41 22.21 43.36 33.55 54.7 22.21 66.04 26.16 69.99 37.5 58.65 48.84 69.99 52.8 66.04 41.45 54.7 52.8 43.36"/>
  <polygon class="cls-2" points="115.32 43.36 111.37 39.41 100.03 50.75 88.69 39.41 84.73 43.36 96.08 54.7 84.73 66.04 88.69 69.99 100.03 58.65 111.37 69.99 115.32 66.04 103.98 54.7 115.32 43.36"/>
  <path class="cls-2" d="M34.34,88.57v8.21H68.19c.42,14,5.51,25.14,19.8,25.14s20.34-11.09,20.84-25.14h0V88.57Z"/>
</svg>
