<svg id="Normal_1" data-name="Layer 1" xmlns="http://www.w3.org/2000/svg" width="136.42" height="139.59" viewBox="0 0 136.42 139.59">
  <defs>
    <style>
    #Normal_1:hover { cursor: pointer; }
    #Normal_1:hover .cls-1 { fill: blue; }
      .cls-1 {
        stroke: #231f20;
        stroke-miterlimit: 10;
        fill: black;
        transition: all 1s ease;
      }

    </style>
  </defs>
  <g>
    <circle class="cls-1" cx="100.07" cy="51.85" r="16.29"/>
    <circle class="cls-1" cx="37.54" cy="51.85" r="16.29"/>
    <path class="cls-1" d="M122.65,91.46c0,15.83-24.37,28.67-54.44,28.67S13.77,107.29,13.77,91.46s24.37,9,54.44,9S122.65,75.62,122.65,91.46Z"/>
    <path class="cls-1" d="M59.8,30.07c-.53,2.56-11.36-.44-21.7-2.59S14.75,23.36,15.28,20.8s13.63-1,24,1.12S60.33,27.51,59.8,30.07Z"/>
    <path class="cls-1" d="M77.81,30.07c.53,2.56,11.36-.44,21.7-2.59s23.35-4.12,22.82-6.68-13.63-1-24,1.12S77.28,27.51,77.81,30.07Z"/>
  </g>
</svg>
