<svg id="Layer_1" data-name="Layer 1" xmlns="http://www.w3.org/2000/svg" width="136.42" height="139.59" viewBox="0 0 136.42 139.59">
  <defs>
    <style>
      .cls-1 {
        stroke: #231f20;
        stroke-miterlimit: 10;
      }
    </style>
  </defs>
  <path class="cls-1" d="M94.7,34A16.3,16.3,0,1,0,111,50.32,16.29,16.29,0,0,0,94.7,34Zm0,24.86a8.57,8.57,0,1,1,8.57-8.57A8.57,8.57,0,0,1,94.7,58.89Z"/>
  <path class="cls-1" d="M35.59,34A16.3,16.3,0,1,0,51.88,50.32,16.29,16.29,0,0,0,35.59,34Zm0,24.86a8.57,8.57,0,1,1,8.57-8.57A8.56,8.56,0,0,1,35.59,58.89Z"/>
  <path class="cls-1" d="M77.39,29.28c0,3.37,14.44-1.22,28.06-1.22s23.71,4.59,23.71,1.22-10.09-8.55-23.71-8.55S77.39,25.91,77.39,29.28Z"/>
  <path class="cls-1" d="M56.1,29.28c0,3.37-14.44-1.22-28.06-1.22s-23.7,4.59-23.7,1.22S14.42,20.73,28,20.73,56.1,25.91,56.1,29.28Z"/>
  <path class="cls-1" d="M62.85,86C31.33,86,10.39,64,10.39,76.49s20.94,54.57,52.46,54.57S119.9,90.83,119.9,78.38,94.36,86,62.85,86Zm.6,39.17c-23.17,0-47.35-35-47.35-44.15S40.28,92,63.45,92,111,74.47,111,83.63,86.63,125.13,63.45,125.13Z"/>
</svg>
