<svg id="Layer_1" data-name="Layer 1" xmlns="http://www.w3.org/2000/svg" width="136.42" height="139.59" viewBox="0 0 136.42 139.59">
  <defs>
    <style>
      .cls-1, .cls-2 {
        stroke: #231f20;
        stroke-miterlimit: 10;
      }

      .cls-2 {
        fill: #fdfefe;
      }
    </style>
  </defs>
  <g>
    <path class="cls-1" d="M94.7,34A16.3,16.3,0,1,0,111,50.32,16.29,16.29,0,0,0,94.7,34Zm0,24.86a8.57,8.57,0,1,1,8.57-8.57A8.57,8.57,0,0,1,94.7,58.89Z"/>
    <path class="cls-1" d="M35.59,34A16.3,16.3,0,1,0,51.88,50.32,16.29,16.29,0,0,0,35.59,34Zm0,24.86a8.57,8.57,0,1,1,8.57-8.57A8.56,8.56,0,0,1,35.59,58.89Z"/>
    <path class="cls-1" d="M77.39,29.28c0,3.37,14.44-1.22,28.06-1.22s23.71,4.59,23.71,1.22-10.09-8.55-23.71-8.55S77.39,25.91,77.39,29.28Z"/>
    <path class="cls-1" d="M56.1,29.28c0,3.37-14.44-1.22-28.06-1.22s-23.7,4.59-23.7,1.22S14.42,20.73,28,20.73,56.1,25.91,56.1,29.28Z"/>
    <path class="cls-1" d="M119.9,78.38c0,12.45-25.54,52.68-57,52.68S10.39,88.94,10.39,76.49,31.33,86,62.85,86,119.9,65.93,119.9,78.38Z"/>
    <path class="cls-2" d="M111,83.63c0,9.15-24.37,41.5-47.55,41.5S16.1,90.13,16.1,81,40.28,92,63.45,92,111,74.47,111,83.63Z"/>
  </g>
</svg>
