<svg id="Layer_1" data-name="Layer 1" xmlns="http://www.w3.org/2000/svg" width="136.42" height="139.59" viewBox="0 0 136.42 139.59">
  <defs>
    <style>
      .cls-1 {
        stroke: #231f20;
        stroke-miterlimit: 10;
      }
    </style>
  </defs>
  <path class="cls-1" d="M98.57,29.79a16.3,16.3,0,1,0,16.29,16.3A16.3,16.3,0,0,0,98.57,29.79Zm0,24.87a8.57,8.57,0,1,1,8.57-8.57A8.57,8.57,0,0,1,98.57,54.66Z"/>
  <path class="cls-1" d="M39.45,29.79a16.3,16.3,0,1,0,16.3,16.3A16.29,16.29,0,0,0,39.45,29.79Zm0,24.87A8.57,8.57,0,1,1,48,46.09,8.57,8.57,0,0,1,39.45,54.66Z"/>
  <path class="cls-1" d="M60.36,14.44c0,2.61-11.21-.95-21.78-.95s-18.39,3.56-18.39.95S28,7.81,38.58,7.81,60.36,11.82,60.36,14.44Z"/>
  <path class="cls-1" d="M79.31,14.44c0,2.61,11.2-.95,21.77-.95s18.39,3.56,18.39.95-7.82-6.63-18.39-6.63S79.31,11.82,79.31,14.44Z"/>
  <path class="cls-1" d="M71.1,65.58c-24,.16-53.11,57.3-53,66.77S47.37,100,71.33,99.87s43.59,41.31,43.53,31.84S95.06,65.42,71.1,65.58Zm-.57,29c-20.13.14-44.14,34.45-44.19,26.5s23.91-49.41,44-49.55,38,41.05,38.07,49S90.67,94.42,70.53,94.55Z"/>
</svg>
