<svg id="Layer_1" data-name="Layer 1" xmlns="http://www.w3.org/2000/svg" width="136.42" height="139.59" viewBox="0 0 136.42 139.59">
  <defs>
    <style>
      .cls-1, .cls-2 {
        stroke: #231f20;
        stroke-miterlimit: 10;
      }

      .cls-2 {
        fill: #fff;
      }
    </style>
  </defs>
  <g>
    <path class="cls-1" d="M98.57,29.79a16.3,16.3,0,1,0,16.29,16.3A16.3,16.3,0,0,0,98.57,29.79Zm0,24.87a8.57,8.57,0,1,1,8.57-8.57A8.57,8.57,0,0,1,98.57,54.66Z"/>
    <path class="cls-1" d="M39.45,29.79a16.3,16.3,0,1,0,16.3,16.3A16.29,16.29,0,0,0,39.45,29.79Zm0,24.87A8.57,8.57,0,1,1,48,46.09,8.57,8.57,0,0,1,39.45,54.66Z"/>
    <path class="cls-1" d="M60.36,14.44c0,2.61-11.21-.95-21.78-.95s-18.39,3.56-18.39.95S28,7.81,38.58,7.81,60.36,11.82,60.36,14.44Z"/>
    <path class="cls-1" d="M79.31,14.44c0,2.61,11.2-.95,21.77-.95s18.39,3.56,18.39.95-7.82-6.63-18.39-6.63S79.31,11.82,79.31,14.44Z"/>
    <path class="cls-1" d="M18.05,132.35C18,122.88,47.14,65.74,71.1,65.58s43.7,56.66,43.76,66.13-19.57-32-43.53-31.84S18.12,141.81,18.05,132.35Z"/>
    <path class="cls-2" d="M26.34,121.05c-.06-8,23.91-49.41,44-49.55s38,41.05,38.07,49-17.78-26.09-37.92-26S26.39,129,26.34,121.05Z"/>
  </g>
</svg>
